# xmcd
#
# Track frame offsets: 
#        150
#        19875
#        34635
#        57762
#        73050
#        91247
#        104415
#        131915
#        147057
#        163552
#        182385
#
# Disc length: 2805 seconds
#
# Revision: 4
# Processed by: cddbd v1.5.2PL0 Copyright (c) Steve Scherf et al.
# Submitted via: ExactAudioCopy v1.0b3
#
DISCID=8f0af30b
DTITLE=Hans Theessink - Journey On
DYEAR=1997
DGENRE=Blues
TTITLE0=Where the Southern Crosses the Dog
TTITLE1=Journey On
TTITLE2=Set Me Free
TTITLE3=29 Ways
TTITLE4=Storm Warning
TTITLE5=Wings
TTITLE6=Louisiana Man
TTITLE7=Run the Human Race
TTITLE8=Bourgeois Blues
TTITLE9=Walking the Dog
TTITLE10=Feel Like Going Home
EXTD=
EXTT0=
EXTT1=
EXTT2=
EXTT3=
EXTT4=
EXTT5=
EXTT6=
EXTT7=
EXTT8=
EXTT9=
EXTT10=
PLAYORDER=
